<svg width="15" height="15" viewBox="0 0 15 15" fill="none" xmlns="http://www.w3.org/2000/svg">
<path d="M7.5 9C7.26389 9 7.06611 8.928 6.90667 8.784C6.74667 8.6405 6.66667 8.4625 6.66667 8.25C6.66667 8.0375 6.74667 7.85925 6.90667 7.71525C7.06611 7.57175 7.26389 7.5 7.5 7.5C7.73611 7.5 7.93417 7.57175 8.09417 7.71525C8.25361 7.85925 8.33333 8.0375 8.33333 8.25C8.33333 8.4625 8.25361 8.6405 8.09417 8.784C7.93417 8.928 7.73611 9 7.5 9ZM4.16667 9C3.93056 9 3.7325 8.928 3.5725 8.784C3.41306 8.6405 3.33333 8.4625 3.33333 8.25C3.33333 8.0375 3.41306 7.85925 3.5725 7.71525C3.7325 7.57175 3.93056 7.5 4.16667 7.5C4.40278 7.5 4.60083 7.57175 4.76083 7.71525C4.92028 7.85925 5 8.0375 5 8.25C5 8.4625 4.92028 8.6405 4.76083 8.784C4.60083 8.928 4.40278 9 4.16667 9ZM10.8333 9C10.5972 9 10.3994 8.928 10.24 8.784C10.08 8.6405 10 8.4625 10 8.25C10 8.0375 10.08 7.85925 10.24 7.71525C10.3994 7.57175 10.5972 7.5 10.8333 7.5C11.0694 7.5 11.2672 7.57175 11.4267 7.71525C11.5867 7.85925 11.6667 8.0375 11.6667 8.25C11.6667 8.4625 11.5867 8.6405 11.4267 8.784C11.2672 8.928 11.0694 9 10.8333 9ZM7.5 12C7.26389 12 7.06611 11.928 6.90667 11.784C6.74667 11.6405 6.66667 11.4625 6.66667 11.25C6.66667 11.0375 6.74667 10.8595 6.90667 10.716C7.06611 10.572 7.26389 10.5 7.5 10.5C7.73611 10.5 7.93417 10.572 8.09417 10.716C8.25361 10.8595 8.33333 11.0375 8.33333 11.25C8.33333 11.4625 8.25361 11.6405 8.09417 11.784C7.93417 11.928 7.73611 12 7.5 12ZM4.16667 12C3.93056 12 3.7325 11.928 3.5725 11.784C3.41306 11.6405 3.33333 11.4625 3.33333 11.25C3.33333 11.0375 3.41306 10.8595 3.5725 10.716C3.7325 10.572 3.93056 10.5 4.16667 10.5C4.40278 10.5 4.60083 10.572 4.76083 10.716C4.92028 10.8595 5 11.0375 5 11.25C5 11.4625 4.92028 11.6405 4.76083 11.784C4.60083 11.928 4.40278 12 4.16667 12ZM10.8333 12C10.5972 12 10.3994 11.928 10.24 11.784C10.08 11.6405 10 11.4625 10 11.25C10 11.0375 10.08 10.8595 10.24 10.716C10.3994 10.572 10.5972 10.5 10.8333 10.5C11.0694 10.5 11.2672 10.572 11.4267 10.716C11.5867 10.8595 11.6667 11.0375 11.6667 11.25C11.6667 11.4625 11.5867 11.6405 11.4267 11.784C11.2672 11.928 11.0694 12 10.8333 12ZM1.66667 15C1.20833 15 0.815833 14.8533 0.489167 14.5597C0.163055 14.2657 0 13.9125 0 13.5V3C0 2.5875 0.163055 2.2345 0.489167 1.941C0.815833 1.647 1.20833 1.5 1.66667 1.5H2.5V0.75C2.5 0.5375 2.57972 0.35925 2.73917 0.21525C2.89917 0.07175 3.09722 0 3.33333 0C3.56944 0 3.7675 0.07175 3.9275 0.21525C4.08694 0.35925 4.16667 0.5375 4.16667 0.75V1.5H10.8333V0.75C10.8333 0.5375 10.9133 0.35925 11.0733 0.21525C11.2328 0.07175 11.4306 0 11.6667 0C11.9028 0 12.1006 0.07175 12.26 0.21525C12.42 0.35925 12.5 0.5375 12.5 0.75V1.5H13.3333C13.7917 1.5 14.1842 1.647 14.5108 1.941C14.8369 2.2345 15 2.5875 15 3V13.5C15 13.9125 14.8369 14.2657 14.5108 14.5597C14.1842 14.8533 13.7917 15 13.3333 15H1.66667ZM1.66667 13.5H13.3333V6H1.66667V13.5Z" fill="#999999"/>
</svg>
