<svg width="96" height="96" viewBox="0 0 96 96" fill="none" xmlns="http://www.w3.org/2000/svg">
<path d="M86.6878 51.816L81.8918 43.956L84.2798 35.06C84.7758 33.208 83.8878 31.264 82.1638 30.424L73.8798 26.404L71.0798 17.632C70.4958 15.804 68.6958 14.648 66.7918 14.876L57.6478 15.972L50.5478 10.104C49.0678 8.88004 46.9318 8.88004 45.4518 10.104L38.3518 15.972L29.2078 14.876C27.3038 14.648 25.5038 15.804 24.9238 17.628L22.1238 26.4L13.8358 30.424C12.1118 31.26 11.2238 33.208 11.7198 35.06L14.1078 43.956L9.3118 51.816C8.3118 53.452 8.6158 55.572 10.0358 56.86L16.8518 63.052L17.0678 72.26C17.1118 74.176 18.5118 75.792 20.4038 76.112L29.4878 77.636L34.6478 85.264C35.7238 86.852 37.7758 87.456 39.5358 86.7L47.9998 83.068L56.4638 86.696C58.2278 87.452 60.2798 86.848 61.3518 85.26L66.5118 77.632L75.5958 76.108C77.4878 75.792 78.8878 74.176 78.9318 72.256L79.1478 63.048L85.9638 56.856C87.3838 55.568 87.6878 53.452 86.6878 51.816ZM48.3198 60.02C47.5318 60.936 46.4158 61.408 45.2878 61.408C44.4278 61.408 43.5638 61.132 42.8358 60.564L33.0158 52.928L37.9318 46.616L44.7518 51.916L56.3518 38.476L62.4078 43.704L48.3198 60.02Z" fill="black"/>
</svg>
