<svg width="43" height="44" viewBox="0 0 43 44" fill="none" xmlns="http://www.w3.org/2000/svg">
<g clip-path="url(#clip0_138_180)">
<path d="M10.7497 34.2734C10.7497 36.249 12.3622 37.8653 14.333 37.8653H28.6663C30.6372 37.8653 32.2497 36.249 32.2497 34.2734V12.7221H10.7497V34.2734ZM15.1572 21.4863L17.6834 18.954L21.4997 22.7614L25.298 18.954L27.8243 21.4863L24.0259 25.2937L27.8243 29.1011L25.298 31.6334L21.4997 27.826L17.7013 31.6334L15.1751 29.1011L18.9734 25.2937L15.1572 21.4863ZM27.7705 7.33427L25.9788 5.53833H17.0205L15.2288 7.33427H8.95801V10.9262H34.0413V7.33427H27.7705Z" fill="black"/>
</g>
<defs>
<clipPath id="clip0_138_180">
<rect width="43" height="43.1026" fill="white" transform="translate(0 0.150391)"/>
</clipPath>
</defs>
</svg>
