<svg width="14" height="14" viewBox="0 0 14 14" fill="none" xmlns="http://www.w3.org/2000/svg">
<path d="M6.75 0.25C3.15 0.25 0 3.145 0 7C0 8.59 0.555 10.0525 1.4775 11.2075L0 12.6925L1.0575 13.75L2.535 12.2725C3.6975 13.195 5.16 13.75 6.75 13.75C8.475 13.75 10.2075 13.09 11.52 11.77C12.84 10.4575 13.5 8.725 13.5 7V0.25H6.75ZM9.6225 7.195L5.7525 10.6675C5.6325 10.78 5.445 10.7725 5.3325 10.66C5.2275 10.555 5.2125 10.39 5.3025 10.27L7.1325 7.7725L4.095 7.4725C3.765 7.4425 3.6225 7.03 3.87 6.805L7.74 3.3325C7.86 3.22 8.0475 3.2275 8.16 3.34C8.265 3.445 8.28 3.61 8.19 3.73L6.36 6.2275L9.3975 6.5275C9.735 6.5575 9.87 6.97 9.6225 7.195Z" fill="#999999"/>
</svg>
