<svg width="96" height="96" viewBox="0 0 96 96" fill="none" xmlns="http://www.w3.org/2000/svg">
<g clip-path="url(#clip0_366_106)">
<path d="M48.504 32.5L56.252 24.752L71.24 39.74L63.492 47.492L48.504 32.5ZM82.84 22.52L73.48 13.16C72.7306 12.415 71.7167 11.9968 70.66 11.9968C69.6033 11.9968 68.5894 12.415 67.84 13.16L60.52 20.48L75.52 35.48L82.84 28C83.5375 27.2582 83.9258 26.2782 83.9258 25.26C83.9258 24.2418 83.5375 23.2618 82.84 22.52ZM8 20L34.52 46.52L12 69V84H27L49.52 61.52L72 84L80 76L16 12L8 20Z" fill="black"/>
</g>
<defs>
<clipPath id="clip0_366_106">
<rect width="96" height="96" fill="white"/>
</clipPath>
</defs>
</svg>
