<svg width="18" height="18" viewBox="0 0 18 18" fill="none" xmlns="http://www.w3.org/2000/svg">
<path d="M9 12.3401C8.85833 12.3401 8.72552 12.3178 8.60156 12.2732C8.4776 12.2292 8.3625 12.1542 8.25625 12.0479L4.43125 8.22291C4.23646 8.02811 4.13906 7.7802 4.13906 7.47916C4.13906 7.17811 4.23646 6.9302 4.43125 6.73541C4.62604 6.54062 4.87821 6.43861 5.18775 6.42941C5.498 6.42091 5.75052 6.51405 5.94531 6.70884L7.9375 8.70103V1.10416C7.9375 0.803115 8.0395 0.550594 8.2435 0.346594C8.44679 0.143303 8.69896 0.0416565 9 0.0416565C9.30104 0.0416565 9.55356 0.143303 9.75756 0.346594C9.96085 0.550594 10.0625 0.803115 10.0625 1.10416V8.70103L12.0547 6.70884C12.2495 6.51405 12.502 6.42091 12.8123 6.42941C13.1218 6.43861 13.374 6.54062 13.5687 6.73541C13.7635 6.9302 13.8609 7.17811 13.8609 7.47916C13.8609 7.7802 13.7635 8.02811 13.5687 8.22291L9.74375 12.0479C9.6375 12.1542 9.5224 12.2292 9.39844 12.2732C9.27448 12.3178 9.14167 12.3401 9 12.3401ZM2.625 17.0417C2.04062 17.0417 1.54054 16.8338 1.12475 16.418C0.70825 16.0015 0.5 15.501 0.5 14.9167V12.7917C0.5 12.4906 0.601646 12.2381 0.804938 12.0341C1.00894 11.8308 1.26146 11.7292 1.5625 11.7292C1.86354 11.7292 2.11606 11.8308 2.32006 12.0341C2.52335 12.2381 2.625 12.4906 2.625 12.7917V14.9167H15.375V12.7917C15.375 12.4906 15.477 12.2381 15.681 12.0341C15.8843 11.8308 16.1365 11.7292 16.4375 11.7292C16.7385 11.7292 16.9907 11.8308 17.194 12.0341C17.398 12.2381 17.5 12.4906 17.5 12.7917V14.9167C17.5 15.501 17.2921 16.0015 16.8763 16.418C16.4598 16.8338 15.9594 17.0417 15.375 17.0417H2.625Z" fill="black"/>
</svg>
