<svg width="64" height="64" viewBox="0 0 64 64" fill="none" xmlns="http://www.w3.org/2000/svg">
<path d="M13.6953 40.5C14.1395 40.5 14.5 40.1395 14.5 39.6953V16C14.5 14.6193 13.3807 13.5 12 13.5H8C6.61929 13.5 5.5 14.6193 5.5 16V32.3047C5.50018 36.8308 9.16925 40.4998 13.6953 40.5Z" fill="black" stroke="black"/>
<path d="M46 35.6957C46 30.8932 42.1068 27 37.3043 27C36.584 27 36 27.584 36 28.3043V51C36 52.6569 37.3431 54 39 54H43C44.6569 54 46 52.6569 46 51V35.6957Z" fill="black"/>
<path d="M58 42.6957C58 37.8932 54.1068 34 49.3043 34C48.584 34 48 34.584 48 35.3043V51C48 52.6569 49.3431 54 51 54H55.3913C56.832 54 58 52.832 58 51.3913V42.6957Z" fill="black"/>
<path d="M25.5 11C21.9101 11 19 13.9101 19 17.5V49C19 50.6569 20.3431 52 22 52H29C30.6569 52 32 50.6569 32 49V17.5C32 13.9101 29.0899 11 25.5 11Z" fill="black" stroke="black" stroke-width="4"/>
<circle cx="50" cy="27" r="5" fill="black"/>
</svg>
