<svg width="16" height="15" viewBox="0 0 16 15" fill="none" xmlns="http://www.w3.org/2000/svg">
<path d="M13.8725 4.625L12.17 2.9225C12.2225 2.6075 12.305 2.315 12.41 2.06C12.47 1.925 12.5 1.7825 12.5 1.625C12.5 1.0025 11.9975 0.5 11.375 0.5C10.145 0.5 9.0575 1.0925 8.375 2H4.625C2.345 2 0.5 3.845 0.5 6.125C0.5 8.405 2.375 14.75 2.375 14.75H6.5V13.25H8V14.75H12.125L13.385 10.5575L15.5 9.8525V4.625H13.8725ZM8.75 5.75H5V4.25H8.75V5.75ZM11 7.25C10.5875 7.25 10.25 6.9125 10.25 6.5C10.25 6.0875 10.5875 5.75 11 5.75C11.4125 5.75 11.75 6.0875 11.75 6.5C11.75 6.9125 11.4125 7.25 11 7.25Z" fill="#999999"/>
</svg>
